<?xml version="1.0" encoding="utf-8"?>
<!-- Generator: Adobe Illustrator 18.1.1, SVG Export Plug-In . SVG Version: 6.00 Build 0)  -->
<!DOCTYPE svg PUBLIC "-//W3C//DTD SVG 1.1//EN" "http://www.w3.org/Graphics/SVG/1.1/DTD/svg11.dtd">
<svg version="1.1" id="Layer_1" xmlns="http://www.w3.org/2000/svg" xmlns:xlink="http://www.w3.org/1999/xlink" x="0px" y="0px"
	 viewBox="0 0 50 50" enable-background="new 0 0 50 50" xml:space="preserve">
<g>
	<path fill="#FFFFFF" d="M43.1,10.1L43.1,10.1c0,1.8-1.4,3.2-3.2,3.2H10.1c-1.8,0-3.2-1.4-3.2-3.2v0c0-1.8,1.4-3.2,3.2-3.2h29.8
		C41.7,6.9,43.1,8.3,43.1,10.1z"/>
	<path fill="#FFFFFF" d="M43.1,39.9L43.1,39.9c0,1.8-1.4,3.2-3.2,3.2H10.1c-1.8,0-3.2-1.4-3.2-3.2v0c0-1.8,1.4-3.2,3.2-3.2h29.8
		C41.7,36.7,43.1,38.1,43.1,39.9z"/>
	<path fill="#FFFFFF" d="M43.1,25L43.1,25c0,1.8-1.4,3.2-3.2,3.2H10.1c-1.8,0-3.2-1.4-3.2-3.2v0c0-1.8,1.4-3.2,3.2-3.2h29.8
		C41.7,21.8,43.1,23.2,43.1,25z"/>
</g>
</svg>
