<?xml version="1.0" encoding="utf-8"?>
<!-- Generator: Adobe Illustrator 18.1.1, SVG Export Plug-In . SVG Version: 6.00 Build 0)  -->
<!DOCTYPE svg PUBLIC "-//W3C//DTD SVG 1.1//EN" "http://www.w3.org/Graphics/SVG/1.1/DTD/svg11.dtd">
<svg version="1.1" id="Layer_1" xmlns="http://www.w3.org/2000/svg" xmlns:xlink="http://www.w3.org/1999/xlink" x="0px" y="0px"
	 viewBox="0 0 50 50" enable-background="new 0 0 50 50" xml:space="preserve">
<path fill="#FFFFFF" d="M29.5,25l12.7-12.7c1.2-1.2,1.2-3.2,0-4.5c-1.2-1.2-3.2-1.2-4.5,0L25,20.5L12.3,7.9c-1.2-1.2-3.2-1.2-4.5,0
	c-1.2,1.2-1.2,3.2,0,4.5L20.5,25L7.9,37.7c-1.2,1.2-1.2,3.2,0,4.5c1.2,1.2,3.2,1.2,4.5,0L25,29.5l12.7,12.7c1.2,1.2,3.2,1.2,4.5,0
	c1.2-1.2,1.2-3.2,0-4.5L29.5,25z"/>
</svg>
